<svg width="2726" height="1529" xmlns="http://www.w3.org/2000/svg" xmlns:xlink="http://www.w3.org/1999/xlink" xml:space="preserve" overflow="hidden"><defs><clipPath id="clip0"><rect x="667" y="547" width="2726" height="1529"/></clipPath></defs><g clip-path="url(#clip0)" transform="translate(-667 -547)"><path d="M2721 1564 2448 1495.75 2448 1237.25 2721 1169Z" fill="#FF99CC" fill-rule="evenodd"/><text fill="#C00000" font-family="Calibri,Calibri_MSFontService,sans-serif" font-weight="400" font-size="50" transform="matrix(1 0 0 1 699.735 741)">1<tspan font-size="50" x="195.297" y="-120">2</tspan><tspan font-size="50" x="414.163" y="-128">13</tspan><tspan font-size="50" x="2587.68" y="493">8</tspan><tspan font-size="50" x="1109.48" y="405">3</tspan><tspan font-size="50" x="1700.42" y="397">45</tspan><tspan font-size="50" x="1548.9" y="400">4</tspan><tspan font-size="50" x="590.94" y="404">25</tspan><tspan font-size="50" x="2005.15" y="397">5</tspan><tspan font-size="50" x="2165.1" y="394">7</tspan><tspan font-size="50" x="1476.51" y="-108">17</tspan><tspan font-size="50" x="1707.16" y="15">18</tspan></text><rect x="1103" y="1153" width="1771" height="17.0002"/><rect x="1101" y="1567" width="1780" height="16.9999"/><path d="M2389 1566 2298 1543.25 2298 1193.75 2389 1171Z" fill="#FF9933" fill-rule="evenodd"/><path d="M1333 1174 1788 1231.29 1788 1511.7 1333 1569Z" fill="#FF0000" fill-rule="evenodd"/><path d="M1129 1172 1286 1211.25 1286 1524.75 1129 1564Z" fill="#FFC000" fill-rule="evenodd"/><path d="M1276 842.5 2015 842.5 2015 796 2108 889.001 2015 982 2015 935.5 1276 935.5Z" fill="#00B0F0" fill-rule="evenodd"/><path d="M1095 2041 970 2009.75 970 716.25 1095 685Z" fill="#70AD47" fill-rule="evenodd"/><rect x="914" y="652" width="1308" height="27.9998"/><rect x="907" y="2047" width="1309" height="28.9998"/><path d="M718.126 768.167 919.334 652 931.859 673.693 730.65 789.86Z" fill-rule="evenodd"/><path d="M720.549 1936.64 921.757 2052.81 909.233 2074.5 708.024 1958.33Z" fill-rule="evenodd"/><path d="M2218.91 652.045 2419.95 768.112 2407.46 789.745 2206.42 673.678Z" fill-rule="evenodd"/><path d="M2201.37 2052.81 2402.58 1936.64 2415.1 1958.33 2213.89 2074.5Z" fill-rule="evenodd"/><path d="M1275 1812.25 2014.5 1812.25 2014.5 1766 2107 1858.5 2014.5 1951 2014.5 1904.75 1275 1904.75Z" fill="#00B0F0" fill-rule="evenodd"/><path d="M1908.12 1206 2186.88 1206C2223.4 1206 2253 1231.97 2253 1264 2253 1296.03 2223.4 1322 2186.88 1322L1908.12 1322C1871.6 1322 1842 1296.03 1842 1264 1842 1231.97 1871.6 1206 1908.12 1206Z" fill="#BE3030" fill-rule="evenodd"/><path d="M1906.28 1414 2185.72 1414C2222.32 1414 2252 1440.19 2252 1472.5 2252 1504.81 2222.32 1531 2185.72 1531L1906.28 1531C1869.68 1531 1840 1504.81 1840 1472.5 1840 1440.19 1869.68 1414 1906.28 1414Z" fill="#BE3030" fill-rule="evenodd"/><rect x="1333" y="1342" width="1057" height="54" fill="#002060"/><rect x="970" y="1360" width="1751" height="17.0002" fill="#3B3838"/><path d="M2870.83 1153.45 3307.4 1249.82 3303.89 1265.7 2867.32 1169.33Z" fill-rule="evenodd"/><rect x="0" y="0" width="447.082" height="16.2708" transform="matrix(0.976492 -0.215552 -0.215552 -0.976492 2877.56 1583.92)"/></g></svg>